<?xml version="1.0" encoding="UTF-8"?>
<svg xmlns="http://www.w3.org/2000/svg" xmlns:xlink="http://www.w3.org/1999/xlink" width="80px" height="80px" viewBox="0 0 80 80" version="1.1">
<g id="surface1">
<path style=" stroke:none;fill-rule:nonzero;fill:rgb(13.72549%,32.156863%,87.058824%);fill-opacity:1;" d="M 39.929688 31.210938 C 47.414062 31.210938 53.5 24.210938 53.5 15.605469 C 53.5 7 47.414062 0 39.929688 0 C 32.449219 0 26.359375 7 26.359375 15.605469 C 26.359375 24.210938 32.449219 31.210938 39.929688 31.210938 Z M 39.929688 5.382812 C 44.832031 5.382812 48.820312 9.96875 48.820312 15.605469 C 48.820312 21.242188 44.832031 25.828125 39.929688 25.828125 C 35.027344 25.828125 31.039062 21.242188 31.039062 15.605469 C 31.039062 9.96875 35.027344 5.382812 39.929688 5.382812 Z M 39.929688 5.382812 "/>
<path style=" stroke:none;fill-rule:nonzero;fill:rgb(13.72549%,32.156863%,87.058824%);fill-opacity:1;" d="M 67.382812 31.210938 C 72.113281 31.210938 75.960938 26.785156 75.960938 21.34375 C 75.960938 15.90625 72.113281 11.480469 67.382812 11.480469 C 62.652344 11.480469 58.804688 15.90625 58.804688 21.34375 C 58.804688 26.785156 62.652344 31.210938 67.382812 31.210938 Z M 67.382812 16.859375 C 69.53125 16.859375 71.28125 18.871094 71.28125 21.34375 C 71.28125 23.816406 69.53125 25.828125 67.382812 25.828125 C 65.230469 25.828125 63.480469 23.816406 63.480469 21.34375 C 63.480469 18.871094 65.230469 16.859375 67.382812 16.859375 Z M 67.382812 16.859375 "/>
<path style=" stroke:none;fill-rule:nonzero;fill:rgb(13.72549%,32.156863%,87.058824%);fill-opacity:1;" d="M 69.269531 37.308594 L 65.648438 37.308594 C 61.386719 37.308594 57.703125 40.207031 56.027344 44.367188 C 52.574219 40.03125 47.613281 37.308594 42.109375 37.308594 L 37.75 37.308594 C 32.246094 37.308594 27.285156 40.03125 23.832031 44.367188 C 22.15625 40.207031 18.472656 37.308594 14.210938 37.308594 L 10.589844 37.308594 C 4.75 37.308594 0 42.738281 0 49.414062 L 0 69.003906 C 0 71.902344 2.058594 74.257812 4.585938 74.257812 L 18.894531 74.257812 C 19.132812 77.46875 21.480469 80 24.335938 80 L 55.523438 80 C 58.378906 80 60.726562 77.46875 60.964844 74.257812 L 75.109375 74.257812 C 77.726562 74.257812 79.859375 71.820312 79.859375 68.816406 L 79.859375 49.414062 C 79.859375 42.738281 75.109375 37.308594 69.269531 37.308594 Z M 4.679688 49.414062 C 4.679688 45.707031 7.332031 42.691406 10.589844 42.691406 L 14.210938 42.691406 C 17.46875 42.691406 20.121094 45.707031 20.121094 49.414062 L 20.121094 51.257812 C 18.546875 55.96875 18.871094 58.792969 18.871094 68.878906 L 4.679688 68.878906 Z M 56.308594 73.71875 C 56.308594 74.214844 55.957031 74.617188 55.523438 74.617188 L 24.335938 74.617188 C 23.902344 74.617188 23.550781 74.214844 23.550781 73.71875 L 23.550781 59.015625 C 23.550781 50.015625 29.921875 42.691406 37.75 42.691406 L 42.109375 42.691406 C 49.9375 42.691406 56.308594 50.015625 56.308594 59.015625 Z M 75.179688 68.816406 C 75.179688 68.910156 76.050781 68.878906 60.988281 68.878906 C 60.988281 58.71875 61.308594 55.960938 59.738281 51.257812 L 59.738281 49.414062 C 59.738281 45.707031 62.390625 42.691406 65.648438 42.691406 L 69.269531 42.691406 C 72.527344 42.691406 75.179688 45.707031 75.179688 49.414062 Z M 75.179688 68.816406 "/>
<path style=" stroke:none;fill-rule:nonzero;fill:rgb(13.72549%,32.156863%,87.058824%);fill-opacity:1;" d="M 12.476562 31.210938 C 17.207031 31.210938 21.058594 26.785156 21.058594 21.34375 C 21.058594 15.90625 17.207031 11.480469 12.476562 11.480469 C 7.746094 11.480469 3.898438 15.90625 3.898438 21.34375 C 3.898438 26.785156 7.746094 31.210938 12.476562 31.210938 Z M 12.476562 16.859375 C 14.628906 16.859375 16.378906 18.871094 16.378906 21.34375 C 16.378906 23.816406 14.628906 25.828125 12.476562 25.828125 C 10.328125 25.828125 8.578125 23.816406 8.578125 21.34375 C 8.578125 18.871094 10.328125 16.859375 12.476562 16.859375 Z M 12.476562 16.859375 "/>
</g>
</svg>
