<?xml version="1.0" encoding="UTF-8"?>
<svg xmlns="http://www.w3.org/2000/svg" xmlns:xlink="http://www.w3.org/1999/xlink" width="80px" height="80px" viewBox="0 0 80 80" version="1.1">
<g id="surface1">
<path style=" stroke:none;fill-rule:nonzero;fill:rgb(13.72549%,32.156863%,87.058824%);fill-opacity:1;" d="M 73.113281 11.503906 L 56.394531 11.503906 L 56.394531 7.835938 C 56.394531 3.515625 53.527344 0 50 0 L 29.304688 0 C 25.777344 0 22.910156 3.515625 22.910156 7.835938 L 22.910156 11.503906 L 6.191406 11.503906 C 2.777344 11.503906 0 14.902344 0 19.085938 L 0 72.417969 C 0 76.597656 2.777344 80 6.191406 80 L 73.113281 80 C 76.527344 80 79.304688 76.597656 79.304688 72.417969 L 79.304688 19.085938 C 79.304688 14.902344 76.527344 11.503906 73.113281 11.503906 Z M 28.316406 7.835938 C 28.316406 7.167969 28.761719 6.621094 29.308594 6.621094 L 50 6.621094 C 50.546875 6.621094 50.992188 7.167969 50.992188 7.835938 L 50.992188 11.503906 L 28.316406 11.503906 Z M 6.191406 18.125 L 73.113281 18.125 C 73.546875 18.125 73.898438 18.554688 73.898438 19.085938 L 73.898438 36.460938 C 65.523438 40.269531 52.886719 42.515625 39.628906 42.515625 C 26.402344 42.515625 13.785156 40.277344 5.40625 36.480469 L 5.40625 19.085938 C 5.40625 18.554688 5.757812 18.125 6.191406 18.125 Z M 73.113281 73.378906 L 6.191406 73.378906 C 5.757812 73.378906 5.40625 72.945312 5.40625 72.417969 L 5.40625 43.5 C 13.074219 46.597656 23.15625 48.535156 34.140625 49.019531 C 34.140625 49.058594 34.136719 49.09375 34.136719 49.132812 L 34.136719 50.59375 C 34.136719 53.332031 35.957031 55.558594 38.191406 55.558594 L 41.117188 55.558594 C 43.351562 55.558594 45.167969 53.332031 45.167969 50.59375 L 45.167969 49.132812 C 45.167969 49.09375 45.164062 49.054688 45.164062 49.015625 C 56.15625 48.527344 66.238281 46.585938 73.898438 43.480469 L 73.898438 72.417969 C 73.898438 72.945312 73.546875 73.378906 73.113281 73.378906 Z M 73.113281 73.378906 "/>
</g>
</svg>
